<svg width="200" height="100" viewBox="0 0 200 100" fill="none" xmlns="http://www.w3.org/2000/svg">

<g clip-path="url(#clip0_105_102)">
<path d="M39.1063 15.0976L107.933 10L98.1591 58.4624L81.2471 90L41.4887 82.92L18.8887 55.4608L39.1063 15.0976Z" fill="#0038A8"/>
<path d="M44.8908 26.5973L90.7564 23.8965L83.8092 55.9333L72.5116 75.8581L46.9484 71.9909L32.6172 53.8789L44.8908 26.5973Z" fill="#0079FF"/>
<path d="M50.763 38.2704L75.1758 36.5312L72.2254 53.6176L65.5566 64.5984L51.291 62.408L44.1406 52.8192L50.763 38.2704Z" fill="#3AB7FC"/>
<g opacity="0.2">
<path d="M39.1063 15.0996L18.8887 55.4612L56.7639 50.3284L39.1063 15.0996Z" fill="white"/>
</g>
<g opacity="0.4">
<path d="M107.933 10L39.1055 15.0992L56.7631 50.328L107.933 10Z" fill="white"/>
</g>
<g opacity="0.3">
<path d="M107.933 10L56.7637 50.328L98.1589 58.4624L107.933 10Z" fill="white"/>
</g>
<g opacity="0.2">
<path d="M81.2469 90.0001L98.1589 58.4625L56.7637 50.3281L81.2469 90.0001Z" fill="white"/>
</g>
<g opacity="0.1">
<path d="M41.4883 82.9217L81.2467 90.0001L56.7635 50.3281L41.4883 82.9217Z" fill="white"/>
</g>
<path d="M63.8328 73.4049H58.428L57.18 68.9009H49.4536L48.2056 73.4049H42.8008L49.8344 50.3281H56.764L63.8328 73.4049ZM50.6296 64.5697H55.932L53.2984 54.9025L50.6296 64.5697Z" fill="white"/>
<path d="M73.7864 54.9361V73.4049H68.588V54.9361H62.3848V50.3281H79.988V54.9361H73.7848H73.7864Z" fill="white"/>
<path d="M35.7664 33.8276C35.8208 31.1588 37.2912 29.498 41.184 29.498C42.056 29.498 42.7904 29.6068 43.4432 29.77H47.5808V31.6212L46.2464 32.1108C46.464 32.6276 46.5728 33.2276 46.6 33.826V35.4324C46.6 37.9652 44.8304 39.6532 41.1824 39.6532H40.7744C40.5024 39.8164 40.2032 40.0068 40.2032 40.3876C40.2032 40.6868 40.3936 40.9044 40.6384 40.9316C42.408 41.122 42.952 41.1764 43.9328 41.258C46.1648 41.4484 47.1456 42.2116 47.1456 44.498C47.1456 47.6836 45.1584 48.6644 41.0464 48.6644C39.7392 48.6644 37.0608 48.3364 35.3184 47.8724L36.5344 45.1716C38.1136 45.5524 39.5232 45.6692 40.6928 45.6692C42.7344 45.6692 43.552 45.5876 43.552 44.7156C43.552 44.1988 43.3072 44.0628 42.5168 43.9796C41.0192 43.8436 40.7744 43.8164 39.1408 43.6532C37.344 43.4628 36.3088 43.082 36.3088 41.258C36.3088 40.1956 36.7984 39.4884 37.4528 38.8356C36.3088 38.1556 35.7648 37.0116 35.7648 35.4324V33.826L35.7664 33.8276ZM42.9536 35.2436V33.9908C42.9536 33.1188 42.4912 32.602 41.184 32.602C39.8768 32.602 39.4144 33.1188 39.4144 33.9908V35.2436C39.4144 36.1412 39.904 36.5508 41.184 36.5508C42.464 36.5508 42.9536 36.1428 42.9536 35.2436Z" fill="white"/>
<path d="M54.4703 43.3018C51.9375 43.3018 50.4687 42.3482 50.4687 39.8986V32.929H48.6719V29.7706H50.4687V26.2682L54.3887 26.041V29.7706H57.4111L57.1935 32.929H54.3887V39.3546C54.3887 39.8986 54.7151 40.089 55.2063 40.089C55.6415 40.089 56.2687 40.0346 56.8399 39.8442L57.3023 42.8122C56.4303 43.1114 55.3695 43.3018 54.4703 43.3018Z" fill="white"/>
<path d="M64.4 43.3029C61.8672 43.3029 60.3984 42.3493 60.3984 39.8997V32.9301H58.6016V29.7717H60.3984V25.6821L64.3184 25.4453V29.7717H67.3408L67.1232 32.9301H64.3184V39.3557C64.3184 39.8997 64.6448 40.0901 65.136 40.0901C65.5712 40.0901 66.1984 40.0357 66.7696 39.8453L67.232 42.8133C66.36 43.1125 65.2992 43.3029 64.4 43.3029Z" fill="white"/>
<path d="M114.579 39.2426C113.359 39.2426 112.076 38.9738 111.174 38.561L111.571 36.7242C112.537 37.025 113.519 37.2314 114.612 37.2314C115.831 37.2314 116.07 36.9946 116.07 36.1066C116.07 35.1562 116.022 35.0458 114.295 34.665C111.745 34.1114 111.366 33.6042 111.366 31.3226C111.366 29.2154 112.11 28.377 115.009 28.377C115.927 28.377 117.036 28.4714 118.209 28.7258L117.972 30.721C116.769 30.5146 115.993 30.4202 115.043 30.4202C113.982 30.4202 113.743 30.6106 113.743 31.3866C113.743 32.401 113.791 32.417 115.454 32.8122C118.305 33.4938 118.447 34.0474 118.447 36.1226C118.447 38.1978 117.766 39.2426 114.583 39.2426H114.579Z" fill="white"/>
<path d="M124.603 39.0828V33.982C124.603 33.6332 124.445 33.4284 124.049 33.4284C123.654 33.4284 122.877 33.7452 122.387 33.998V39.0828H120.105V28.2172L122.355 27.9004V31.9228C123.289 31.4956 124.224 31.2092 125.11 31.2092C126.425 31.2092 126.885 32.1916 126.885 33.6796V39.0812H124.605L124.603 39.0828Z" fill="white"/>
<path d="M132.996 39.0833L132.838 38.5921C131.951 39.0833 131.159 39.2417 130.636 39.2417C129.211 39.2417 128.625 38.2129 128.625 36.8977C128.625 35.3457 129.339 34.7281 130.921 34.7281H132.583V34.1425C132.583 33.3505 132.441 33.0817 131.222 33.0817C130.54 33.0817 129.86 33.1617 129.131 33.3041L128.83 31.5937C129.558 31.3713 130.715 31.2129 131.601 31.2129C134.278 31.2129 134.863 32.0209 134.863 34.1585V39.0849H132.995L132.996 39.0833ZM132.585 36.3121H131.492C131.001 36.3121 130.811 36.4385 130.811 36.8657C130.811 37.2929 130.985 37.4673 131.428 37.4673C131.903 37.4673 132.236 37.3569 132.585 37.1985V36.3121Z" fill="white"/>
<path d="M143.609 36.3901C143.609 38.2109 142.817 39.2413 141.012 39.2413C140.379 39.2413 139.571 39.1469 139.048 39.0189V42.2029L136.768 42.5197V31.3693H138.558L138.796 31.9869C139.336 31.6381 140.332 31.2109 141.172 31.2109C142.74 31.2109 143.611 32.1773 143.611 34.0621V36.3901H143.609ZM139.048 37.0717C139.444 37.1661 140.03 37.2621 140.505 37.2621C141.107 37.2621 141.329 36.8973 141.329 36.3917V34.0637C141.329 33.5245 141.107 33.1933 140.505 33.1933C139.982 33.1933 139.38 33.5101 139.048 33.7949V37.0733V37.0717Z" fill="white"/>
<path d="M145.271 30.4025V27.9785H147.551V30.4025H145.271ZM145.271 39.0825V31.3689H147.551V39.0825H145.271Z" fill="white"/>
<path d="M154.107 39.0829V33.9821C154.107 33.6333 153.949 33.4285 153.553 33.4285C153.158 33.4285 152.381 33.7133 151.891 33.9821V39.0829H149.609V31.3693H151.304L151.542 31.9549C152.493 31.4957 153.728 31.2109 154.614 31.2109C155.929 31.2109 156.389 32.1933 156.389 33.6813V39.0829H154.109H154.107Z" fill="white"/>
<path d="M157.893 33.7293C157.925 32.1773 158.779 31.2109 161.045 31.2109C161.552 31.2109 161.979 31.2749 162.36 31.3693H164.768V32.4461L163.992 32.7309C164.118 33.0317 164.182 33.3805 164.198 33.7293V34.6637C164.198 36.1373 163.169 37.1181 161.046 37.1181H160.808C160.649 37.2125 160.475 37.3245 160.475 37.5453C160.475 37.7197 160.585 37.8461 160.728 37.8621C161.757 37.9725 162.073 38.0045 162.645 38.0525C163.944 38.1629 164.513 38.6061 164.513 39.9373C164.513 41.7901 163.357 42.3613 160.966 42.3613C160.206 42.3613 158.907 42.2349 157.894 41.9661L158.227 40.3037C159.145 40.5261 160.08 40.6205 160.761 40.6205C161.949 40.6205 162.424 40.5725 162.424 40.0669C162.424 39.7661 162.281 39.6861 161.822 39.6397C160.952 39.5613 160.808 39.5453 159.859 39.4493C158.814 39.3389 158.211 39.1165 158.211 38.0557C158.211 37.4381 158.496 37.0269 158.877 36.6461C158.211 36.2493 157.894 35.5853 157.894 34.6669V33.7325L157.893 33.7293ZM162.073 34.5533V33.8253C162.073 33.3181 161.805 33.0173 161.045 33.0173C160.285 33.0173 160.016 33.3181 160.016 33.8253V34.5533C160.016 35.0765 160.301 35.3133 161.045 35.3133C161.789 35.3133 162.073 35.0749 162.073 34.5533Z" fill="white"/>
<path d="M112.25 56.2793H108.164V45.7305H112.25C114.847 45.7305 115.814 47.0457 115.814 48.4713V53.5401C115.814 54.9497 114.847 56.2809 112.25 56.2809V56.2793ZM113.438 49.1193C113.438 48.2953 113.153 47.8361 111.964 47.8361H110.538V54.1721H111.964C113.151 54.1721 113.438 53.7129 113.438 52.8889V49.1193Z" fill="white"/>
<path d="M119.836 48.5645V53.6653C119.836 54.0141 119.995 54.2189 120.391 54.2189C120.788 54.2189 121.564 53.9341 122.054 53.6653V48.5645H124.334V56.2781H122.639L122.403 55.6925C121.452 56.1517 120.217 56.4365 119.329 56.4365C118.014 56.4365 117.555 55.4541 117.555 53.9661V48.5645H119.835H119.836Z" fill="white"/>
<path d="M130.525 56.2786L130.367 55.7874C129.481 56.2786 128.689 56.437 128.165 56.437C126.74 56.437 126.154 55.4082 126.154 54.093C126.154 52.541 126.866 51.9234 128.45 51.9234H130.113V51.3378C130.113 50.5458 129.97 50.277 128.751 50.277C128.07 50.277 127.39 50.357 126.66 50.4994L126.359 48.789C127.087 48.5666 128.244 48.4082 129.13 48.4082C131.807 48.4082 132.393 49.2162 132.393 51.3538V56.2802H130.524L130.525 56.2786ZM130.114 53.5058H129.022C128.53 53.5058 128.34 53.6322 128.34 54.0594C128.34 54.4866 128.514 54.661 128.957 54.661C129.433 54.661 129.765 54.5506 130.114 54.3922V53.5058Z" fill="white"/>
<path d="M134.295 56.2781V45.4125L136.575 45.0957V56.2781H134.295Z" fill="white"/>
<path d="M104.916 73.4726V62.9238H107.292V73.4726H104.916Z" fill="white"/>
<path d="M113.93 73.4736V68.3744C113.93 68.0256 113.771 67.8208 113.376 67.8208C112.981 67.8208 112.203 68.1056 111.714 68.3744V73.4736H109.434V65.76H111.128L111.365 66.3456C112.315 65.8864 113.55 65.6016 114.437 65.6016C115.752 65.6016 116.211 66.584 116.211 68.072V73.4736H113.93Z" fill="white"/>
<path d="M120.771 73.6318C119.298 73.6318 118.443 73.0782 118.443 71.6526V67.5982H117.398V65.7614H118.443V63.9086L120.723 63.5918V65.7614H122.482L122.355 67.5982H120.723V71.3358C120.723 71.6526 120.914 71.763 121.198 71.763C121.451 71.763 121.816 71.731 122.149 71.6206L122.418 73.347C121.91 73.5214 121.293 73.6318 120.771 73.6318Z" fill="white"/>
<path d="M125.776 70.4163V70.6387C125.776 71.5251 126.125 71.7635 127.169 71.7635C127.881 71.7635 128.832 71.6371 129.513 71.4307L129.846 73.1411C129.149 73.3939 128.025 73.6323 126.947 73.6323C124.445 73.6323 123.494 72.3971 123.494 70.4963V68.6915C123.494 67.0291 124.238 65.6035 126.805 65.6035C129.371 65.6035 129.925 67.1235 129.925 68.8035V70.4195H125.774L125.776 70.4163ZM127.771 68.3731C127.771 67.8339 127.613 67.3907 126.821 67.3907C126.029 67.3907 125.776 67.8339 125.776 68.3731V68.7059H127.771V68.3731Z" fill="white"/>
<path d="M131.586 73.4734V62.6078L133.866 62.291V73.4734H131.586Z" fill="white"/>
<path d="M135.926 73.4734V62.6078L138.206 62.291V73.4734H135.926Z" fill="white"/>
<path d="M140.266 64.7931V62.3691H142.547V64.7931H140.266ZM140.266 73.4731V65.7595H142.547V73.4731H140.266Z" fill="white"/>
<path d="M144.131 68.12C144.163 66.568 145.017 65.6016 147.283 65.6016C147.79 65.6016 148.217 65.6656 148.598 65.76H151.006V66.8368L150.23 67.1216C150.356 67.4224 150.42 67.7712 150.436 68.12V69.0544C150.436 70.528 149.408 71.5088 147.284 71.5088H147.048C146.889 71.6032 146.715 71.7152 146.715 71.936C146.715 72.1104 146.825 72.2368 146.968 72.2528C147.996 72.3632 148.313 72.3952 148.884 72.4432C150.184 72.5536 150.753 72.9968 150.753 74.328C150.753 76.1808 149.596 76.752 147.206 76.752C146.446 76.752 145.147 76.6256 144.134 76.3568L144.467 74.6944C145.385 74.9168 146.32 75.0112 147.001 75.0112C148.188 75.0112 148.664 74.9632 148.664 74.4576C148.664 74.1568 148.521 74.0768 148.062 74.0304C147.192 73.952 147.048 73.936 146.097 73.84C145.052 73.7296 144.449 73.5072 144.449 72.4464C144.449 71.8288 144.734 71.4176 145.115 71.0368C144.449 70.64 144.132 69.976 144.132 69.0576V68.1232L144.131 68.12ZM148.312 68.944V68.216C148.312 67.7088 148.043 67.408 147.283 67.408C146.523 67.408 146.254 67.7088 146.254 68.216V68.944C146.254 69.4672 146.539 69.704 147.283 69.704C148.027 69.704 148.312 69.4656 148.312 68.944Z" fill="white"/>
<path d="M154.157 70.4163V70.6387C154.157 71.5251 154.505 71.7635 155.55 71.7635C156.262 71.7635 157.213 71.6371 157.894 71.4307L158.227 73.1411C157.529 73.3939 156.406 73.6323 155.328 73.6323C152.825 73.6323 151.875 72.3971 151.875 70.4963V68.6915C151.875 67.0291 152.619 65.6035 155.185 65.6035C157.752 65.6035 158.305 67.1235 158.305 68.8035V70.4195H154.155L154.157 70.4163ZM156.152 68.3731C156.152 67.8339 155.993 67.3907 155.201 67.3907C154.409 67.3907 154.157 67.8339 154.157 68.3731V68.7059H156.152V68.3731Z" fill="white"/>
<path d="M164.467 73.4736V68.3744C164.467 68.0256 164.308 67.8208 163.913 67.8208C163.518 67.8208 162.74 68.1056 162.251 68.3744V73.4736H159.971V65.76H161.665L161.902 66.3456C162.852 65.8864 164.088 65.6016 164.974 65.6016C166.289 65.6016 166.748 66.584 166.748 68.072V73.4736H164.467Z" fill="white"/>
<path d="M170.532 70.528C170.532 71.32 170.865 71.6848 171.783 71.6848C172.369 71.6848 172.814 71.6208 173.367 71.4944L173.652 73.3952C172.876 73.5696 172.321 73.632 171.783 73.632C169.281 73.632 168.252 72.6976 168.252 70.496V68.7376C168.252 66.536 169.281 65.6016 171.783 65.6016C172.322 65.6016 172.876 65.6656 173.652 65.84L173.367 67.7408C172.892 67.6304 172.226 67.5504 171.783 67.5504C170.865 67.5504 170.532 67.9152 170.532 68.7072V70.528Z" fill="white"/>
<path d="M176.961 70.4163V70.6387C176.961 71.5251 177.31 71.7635 178.355 71.7635C179.067 71.7635 180.017 71.6371 180.699 71.4307L181.032 73.1411C180.334 73.3939 179.211 73.6323 178.132 73.6323C175.63 73.6323 174.68 72.3971 174.68 70.4963V68.6915C174.68 67.0291 175.424 65.6035 177.99 65.6035C180.556 65.6035 181.11 67.1235 181.11 68.8035V70.4195H176.96L176.961 70.4163ZM178.958 68.3731C178.958 67.8339 178.8 67.3907 178.008 67.3907C177.216 67.3907 176.963 67.8339 176.963 68.3731V68.7059H178.958V68.3731Z" fill="white"/>
<path d="M29.8296 68.7534V54.9358H32.948C35.5464 54.9358 36.1704 55.9406 36.1704 57.7422V65.9886C36.1704 67.7902 35.5464 68.795 32.948 68.795H29.8648L33.6568 73.403C39.2744 73.3742 41.3688 70.4782 41.3688 67.4094V56.3214C41.3688 53.203 39.2552 50.3262 33.572 50.3262H24.6328V62.4366L29.8312 68.7518L29.8296 68.7534Z" fill="white"/>
<path d="M84.9032 68.9009H92.5624L95.9624 62.5617L92.2152 50.3281H85.2856L78.252 73.4049H83.6568L84.9048 68.9009H84.9032ZM88.748 54.9009L91.3816 64.5681H86.0808L88.7496 54.9009H88.748Z" fill="white"/>
</g>
<defs>
<clipPath id="clip0_105_102">
<rect width="162.222" height="80" fill="white" transform="translate(18.8887 10)"/>
</clipPath>
</defs>
</svg>
